# xmcd
#
# Track frame offsets:
#	153
#	13166
#	27261
#	43441
#	58206
#	76446
#	87442
#	107955
#	125688
#	140959
#	164396
#	184983
#
# Disc length: 2746 seconds
#
# Revision: 1
# Processed by: cddbd v1.5.2PL0 Copyright (c) Steve Scherf et al.
# Submitted via: audiograbber 1.83.01
#
DISCID=b80ab80c
DTITLE=Various Artist - We Shall Behold Him, A Tribute To Dottie Rambo
DYEAR=2003
DGENRE=Gospel
TTITLE0=Vestal Goodman - There's Nothing My God Can't Do
TTITLE1=Stella Parton - If That Isn't Love
TTITLE2=The Isaacs - He Ain't Never Done Me Nothin' But Good
TTITLE3=Dottie Rambo, Reba and Destiny Rambo-McGuire - Remind Me Dear Lord
TTITLE4=Larry Gatlin and Dottie Rambo - Too Much To Gain To Lose
TTITLE5=The Jordanaires - Prisoner Of Love
TTITLE6=Albertina Walker - He Looked Beyond My Faults And Saw My Needs
TTITLE7=The Speer Family - I Will Glory In The Cross
TTITLE8=The Crabb Family - Tears Will Never Stain The Streets Of That City
TTITLE9=Reba Rambo-McGuire - Mercy Throne
TTITLE10=Jesse Dixon, Dottie Rambo and Vestal Goodman - I've Never Been This Home
TTITLE10=sick
TTITLE11=Dottie Rambo - We Shall Behold Him
EXTD=
EXTT0=
EXTT1=
EXTT2=
EXTT3=
EXTT4=
EXTT5=
EXTT6=
EXTT7=
EXTT8=
EXTT9=
EXTT10=
EXTT11=
PLAYORDER=
